PathFileType	4	(X/Y/Z)	Apose_0-50.trc
DataRate	CameraRate	NumFrames	NumMarkers	Units	OrigDataRate	OrigDataStartFrame	OrigNumFrames
30	30	8	22	m	30	10	50
Frame#	Time	Hip			RHip			RKnee			RAnkle			RBigToe			RSmallToe			RHeel			LHip			LKnee			LAnkle			LBigToe			LSmallToe			LHeel			Neck			Head			Nose			RShoulder			RElbow			RWrist			LShoulder			LElbow			LWrist		
		X1	Y1	Z1	X2	Y2	Z2	X3	Y3	Z3	X4	Y4	Z4	X5	Y5	Z5	X6	Y6	Z6	X7	Y7	Z7	X8	Y8	Z8	X9	Y9	Z9	X10	Y10	Z10	X11	Y11	Z11	X12	Y12	Z12	X13	Y13	Z13	X14	Y14	Z14	X15	Y15	Z15	X16	Y16	Z16	X17	Y17	Z17	X18	Y18	Z18	X19	Y19	Z19	X20	Y20	Z20	X21	Y21	Z21	X22	Y22	Z22
11	0.3666666666666666	0.030766001623971584	0.9231104253712545	0.35987233765463833	0.019179787653321918	0.8889603720144406	0.464668357303558	-0.00020159755715729253	0.5086917383701873	0.49954210769047236	-0.00434525055896636	0.11006788100414096	0.5169608724649638	0.2012032494550561	0.03157859803482441	0.5695750299676501	0.1527443481909285	0.022622514078264603	0.6260914433252595	-0.03647240537320082	0.03771339666915423	0.4994974060703653	0.022463812290204284	0.8910546219836502	0.24638047953335565	0.005635493427183813	0.511401040600113	0.22700746234738062	0.0024200064698126247	0.12105112194258918	0.20787720990121655	0.21738593826752747	0.04515482245401643	0.19181163922019018	0.16587304406771516	0.033750422481548664	0.127407354853177	-0.0455223542529444	0.054871936486812684	0.19910166403470086	0.05951322331577846	1.5660057695950926	0.3493888113780808	0.2879917603833694	1.7595728996304134	0.3163929320363677	0.32256624887038265	1.6069854288566239	0.33525579522683213	0.017757743385829656	1.4943544741914787	0.5336279988447006	0.054629774305867046	1.2333389236923893	0.7194216979956539	0.12052536572881645	1.043859143315857	0.8978467435200125	0.018344645225654946	1.479223881934143	0.1531534728894948	0.014511128737966963	1.226833383065133	0.006145997273437593	0.05117888511823093	1.0085716390092028	-0.14929144527967708
12	0.4	0.030276538124916343	0.9226051324685165	0.35915835222426584	0.018890144055251655	0.8877799310750536	0.4642194593848095	-0.0006296388014875557	0.5089787993695739	0.49927479272815156	-0.004547788106463507	0.11031224311649913	0.5171862603579015	0.20136309598678934	0.03342076756382836	0.5696643976779964	0.15208384685447074	0.02403584167938399	0.6263336179696201	-0.03645405570756319	0.03855218079120954	0.4998885298719868	0.022152491299293052	0.8890364927526776	0.24622704901528242	0.005433762998682784	0.5108485367006093	0.2264649251644223	0.0022272000747095033	0.12144727010347701	0.20793934936470487	0.21713997490941822	0.04517250514651415	0.19183258130343012	0.16579402037856922	0.033561628884973375	0.12752685815790488	-0.04529108917324825	0.055304514999933836	0.19953280540227497	0.058284175902374086	1.5668329388148248	0.34901636862174096	0.28493452121968815	1.7582253215582762	0.31844315609363727	0.3226888791935284	1.6065782663217005	0.33515591330366773	0.01821121385411214	1.494176739932931	0.5335930052194356	0.05339484586497511	1.2340356362597242	0.7184936267233368	0.11928649565117538	1.0442885705570646	0.8964654430405113	0.01716664674578612	1.4784578924038854	0.1522260522769909	0.015619631031624687	1.2259016162136769	0.006228868883425126	0.054931092755967935	1.0100853910788108	-0.14746972472673067
13	0.4333333333333333	0.030029050794623882	0.9222110696662315	0.3584770217629499	0.019060102384431468	0.8865318019475331	0.46365716870831564	-0.0010424139337121162	0.5089973399635219	0.49895484861188993	-0.005242732104660652	0.11120738927296572	0.5173360608442364	0.20156650542964177	0.035077360103332116	0.5695604946037358	0.15145158364015135	0.025313910578207092	0.6267366725638919	-0.03654696797787333	0.0392453732511457	0.5000473452530367	0.02224232628672987	0.8871977012173742	0.24596133375888563	0.005239675808128885	0.5102611430445675	0.2257737313692463	0.00203998821872445	0.12172700996525457	0.207943194202888	0.21680289763863042	0.045197781416581914	0.1918581812969105	0.1657201834911788	0.03344362001794233	0.12747823285212187	-0.04537304573604654	0.05505816616158313	0.2001365609820902	0.05637734623015848	1.567770758185052	0.3489892779823326	0.27820373247292834	1.7559971745909984	0.3241046542072413	0.32206523023279987	1.6061964807063842	0.33479730386058143	0.018625606405955893	1.493956794090712	0.5334061817199205	0.05242015117449103	1.234605272424851	0.7176421190476802	0.11819044230459012	1.044849000032054	0.8949922712567546	0.01593632271176389	1.4776894300111587	0.1515207120295308	0.016751811799687457	1.2249156161809978	0.006204088546877819	0.05908455515636119	1.0120694872239926	-0.14546731603896673
14	0.4666666666666667	0.030096241585091135	0.9220001257184869	0.3579264146030076	0.019482630244421203	0.8856924062040817	0.4630581755989296	-0.0014631525423724017	0.50870637814245	0.49855536802884504	-0.0063053134124918565	0.1128231906566542	0.5173588788432397	0.201601256527824	0.03617065712521495	0.5692134970948701	0.15104100830953374	0.026159498131941638	0.6270972561554939	-0.03654250952630288	0.039437734710296886	0.49980881289399615	0.02275875152391331	0.8860290898635724	0.24551803695449906	0.005097343849192596	0.5098320803795	0.2250684034688339	0.0019046896860018502	0.12192903140200147	0.20779831369958765	0.21643168346591085	0.04533786893781008	0.1917571851355431	0.1655876917533673	0.03345176067063154	0.12728911136942936	-0.0460706396308372	0.05366549712195143	0.2010571028090967	0.05433673083723051	1.5684508389132925	0.3491480811387758	0.27007019328850745	1.7538680702753402	0.33115627466740777	0.3202333037065527	1.605849517267669	0.3340991177738231	0.01863351370413995	1.493831175366566	0.5328570075604013	0.05150642920890038	1.2349167700862078	0.7167436171990221	0.1172374982886736	1.0453551942752595	0.8936125292408341	0.015050056851356563	1.4770774044359967	0.15117055397940654	0.017947268586757863	1.2239756770939048	0.006087366892503309	0.06329012239557119	1.0139448681227503	-0.1437567829791886
15	0.5	0.030467044538614468	0.9220202684327281	0.3575547545232205	0.01996550295458208	0.885509323636396	0.46251719718850487	-0.0017990469216393236	0.508170726701313	0.4981086432294985	-0.0075250624422455534	0.11499122235369681	0.5172683033835135	0.20124758739862805	0.03655738493387953	0.568540408359902	0.15094462948708912	0.026364225771110025	0.6272819676726966	-0.03654176422392758	0.039107127750330296	0.4993228028458692	0.023657933304967932	0.8857230219848715	0.2449053927165618	0.005102517482251675	0.5096936901852612	0.22447531016152256	0.0017612330126292517	0.12227075589676092	0.20743988687753426	0.21607958006436467	0.04566461973691194	0.19139763959240133	0.1653491416949993	0.03360539830640037	0.12698207776242265	-0.04736569001674347	0.05118375019138516	0.2023103492195357	0.052606787049310356	1.5686738885933609	0.34931954046322855	0.26294918237413734	1.7525379179483902	0.3373015642635761	0.31610829809168123	1.6050752235335386	0.3330426186013268	0.018097963856945547	1.4938250286688433	0.5318906606130519	0.050570567550435236	1.2349116678737557	0.7157032330177707	0.11643791144946702	1.0456881883020595	0.8924094254034008	0.014683399748355653	1.4767137695629198	0.15113233482829022	0.01922584022322752	1.223181617510833	0.005850758957841263	0.06714261984310073	1.0152827193028395	-0.14276910117894884
16	0.5333333333333333	0.031040028700627418	0.9222504157860655	0.35730115171796384	0.020414492172395986	0.8858830278090157	0.46208715448565385	-0.0019079947585395854	0.5075315432463309	0.49767455274464945	-0.00862649458039694	0.11727282160132498	0.5171349231984119	0.20034499678099316	0.03636719683787754	0.5674596509642266	0.15096333860799482	0.026104861343826637	0.6273404711906664	-0.03680587956142692	0.038528617535771637	0.4988966605405084	0.024762463785163266	0.8861222462782856	0.24418991385037095	0.005347381314642779	0.5098406618850911	0.22407169663544654	0.001560512732461827	0.12285518140716639	0.20689158430725185	0.21580530082367236	0.046146440858333776	0.19077273657802585	0.1650828174669989	0.03387400517529279	0.1265604825718589	-0.0490552817861796	0.04800185218643552	0.20383942503054403	0.05136452772002614	1.5685207150026872	0.3493941494417428	0.25789271909500894	1.7521389507981577	0.3414873203342023	0.30828151491947925	1.6030533539471603	0.3316601602566095	0.017174121887678192	1.4938551695443434	0.5306296197857587	0.04962999358947845	1.2345981110891655	0.714567076501987	0.1157915532248658	1.045850011686359	0.8913357625348419	0.014704970131521094	1.4766407280263696	0.15119890301240824	0.020524867864241434	1.222639791431565	0.005464032632903448	0.07039188747132401	1.016082941196585	-0.14262053118859722
17	0.5666666666666667	0.0316820205771863	0.9225845450007402	0.35705190202351333	0.020825358621357752	0.8865282139779964	0.46177192880822576	-0.0017207088916980642	0.5069600450538858	0.497285229517518	-0.009354909075281376	0.11916960437181742	0.51701503896343	0.19884699676674533	0.035806889909340035	0.5659971122123914	0.15064575265915628	0.02594920497356677	0.6274627216952597	-0.037508010263677775	0.03807782881598133	0.4987672111426137	0.025803021670979975	0.8868844788199124	0.24344726088794594	0.005872762467808557	0.5101590865939121	0.22384274509063418	0.001400200892115352	0.12346747251616036	0.20629606361234623	0.21567100154755087	0.04666713264980211	0.1900157893030676	0.16495236503327323	0.034227057902860646	0.12604635975123296	-0.05088772781536919	0.04462166896471824	0.20549404423712808	0.05061597518413143	1.568251146754392	0.34938119415048974	0.2548147413208305	1.7524906520236463	0.343711987864837	0.2956313700053277	1.5989982046585032	0.33002531459442325	0.016184994491968436	1.4938246953269982	0.5292868119516183	0.04881292989104183	1.2340386699229557	0.7135341447779554	0.11526695004013891	1.0459389418996123	0.8902806801086103	0.014826386046276886	1.4768487663533918	0.15112823071783715	0.021735061190843653	1.2224316938805457	0.004937227368142829	0.07307823928148115	1.0166717760458235	-0.1430707131855675
18	0.6	0.03228277494621274	0.9228846763603304	0.35673394496602073	0.021233593407164814	0.8872066758207969	0.46155610799414243	-0.0012938295890146372	0.506597786105354	0.4969436573791674	-0.009634982418431212	0.12038916420261452	0.5169122721812822	0.19692072316613313	0.03500258925889951	0.5644077359988933	0.14963871726381986	0.026413853184131246	0.6278036721959229	-0.03864164699983696	0.038038843124884966	0.49902111611108635	0.026574601957507066	0.8876913053920709	0.24274855905060905	0.006622233740831564	0.5105231545278955	0.2237096405860726	0.0014230113787681428	0.1238537773338591	0.20581562553881197	0.2157080119086815	0.047130879940976395	0.1892730359325861	0.16504667168468548	0.03467413044913942	0.1254863131665054	-0.05249342181696504	0.04172241286771364	0.20695971868623597	0.05033193833877399	1.568193423442054	0.34936246871304594	0.2533161614991981	1.7534045652036467	0.34436737741985446	0.2785279657597534	1.592881411931909	0.3282608363316182	0.015449074339394069	1.493700959293474	0.5280611540858177	0.04834292434064194	1.2333186545373374	0.7128686230906133	0.11482590659488562	1.046077324774015	0.889177168193396	0.014833971485634197	1.4772799329898636	0.15077901334174146	0.022784711807116928	1.2225698051809089	0.00430395148926674	0.07539044956243464	1.0173333549084447	-0.14378563712694914
